# xmcd CD database file
#
# Track frame offsets:
#	150
#	12990
#	32724
#	47963
#	57626
#	67302
#	75446
#	92783
#	105112
#	116406
#	132506
#	147547
#	160471
#	168249
#	180085
#	193047
#	201275
#	217994
#	237029
#	248205
#
# Disc length: 3433 seconds
#
# Revision: 5
# Processed by: cddbd v1.5.2PL0 Copyright (c) Steve Scherf et al.
# Submitted via: CDex 1.51
#
DISCID=1a0d6714
DTITLE=Various Artist - Ultimate Country Box - Disc 3
DYEAR=1999
DGENRE=Country
TTITLE0=Mickey Gilley - Roomful of Roses
TTITLE1=Bellamy Brothers - If I Said You Had a Beautiful Body
TTITLE2=Billy Jo Spears - Blanket on the Ground
TTITLE3=Glen Campbell - Gentle on My Mind
TTITLE4=Johnny Cash - Ballad of a Teenage Queen
TTITLE5=Roger Miller - In the Summertime
TTITLE6=Willie Nelson - Whisky River
TTITLE7=Jeanne Pruett - Satin Sheets
TTITLE8=Tammy Wynette - D-I-V-O-R-C-E
TTITLE9=Randy Van Warner - Just When I Needed You Most
TTITLE10=Anne Murray - There Goes My Everything
TTITLE11=Billy Swan - Lover Please
TTITLE12=George Jones - Jambalaya
TTITLE13=Kenny Rogers and The First Edition - Elvira
TTITLE14=Charlie Rich - The Most Beautiful Girl
TTITLE15=Don Gibson - Blue Blue Day
TTITLE16=Kris Krisofferson and Rita Coolidge - Rain
TTITLE17=Tanya tucker - Delta Dawn
TTITLE18=Waylon Jennings - Crying
TTITLE19=Boots Randolph - Yakety Sax
EXTD=YEAR: 1999
EXTT0=
EXTT1=
EXTT2=
EXTT3=
EXTT4=
EXTT5=
EXTT6=
EXTT7=
EXTT8=
EXTT9=
EXTT10=
EXTT11=
EXTT12=
EXTT13=
EXTT14=
EXTT15=
EXTT16=
EXTT17=
EXTT18=
EXTT19=
PLAYORDER=
